<svg width="364" height="318" viewBox="0 0 364 318" fill="none" xmlns="http://www.w3.org/2000/svg">
<g filter="url(#filter0_d_5_19)">
<rect x="105" y="5" width="250" height="300" rx="16" fill="#EDEDED"/>
<rect x="106" y="6" width="248" height="298" rx="15" stroke="black" stroke-width="2"/>
</g>
<rect width="170.944" height="213.697" rx="16" transform="matrix(1 0 -0.22937 0.973339 154.745 32)" fill="#C7C7C7"/>
<line x1="312" y1="87.5" x2="333" y2="87.5" stroke="#7E7E7E" stroke-width="3"/>
<line x1="226.014" y1="107.5" x2="333.014" y2="108.5" stroke="#7E7E7E" stroke-width="3"/>
<line x1="226.014" y1="128.5" x2="333.014" y2="129.5" stroke="#7E7E7E" stroke-width="3"/>
<line x1="226.014" y1="149.5" x2="333.014" y2="150.5" stroke="#7E7E7E" stroke-width="3"/>
<line x1="226.014" y1="169.5" x2="333.014" y2="170.5" stroke="#7E7E7E" stroke-width="3"/>
<line x1="226.014" y1="189.5" x2="333.014" y2="190.5" stroke="#7E7E7E" stroke-width="3"/>
<line x1="120" y1="212.5" x2="333" y2="212.5" stroke="#7E7E7E" stroke-width="3"/>
<line x1="120" y1="232.5" x2="333" y2="232.5" stroke="#7E7E7E" stroke-width="3"/>
<line x1="120" y1="252.5" x2="333" y2="252.5" stroke="#7E7E7E" stroke-width="3"/>
<line x1="120" y1="272.5" x2="333" y2="272.5" stroke="#7E7E7E" stroke-width="3"/>
<g filter="url(#filter1_di_5_19)">
<rect width="248.445" height="225" rx="16" transform="matrix(1 0 -0.461284 0.887253 107.789 5)" fill="#04AC84"/>
<rect x="0.538716" y="0.887253" width="246.445" height="223" rx="15" transform="matrix(1 0 -0.461284 0.887253 108.198 5.10004)" stroke="black" stroke-width="2"/>
</g>
<mask id="path-16-inside-1_5_19" fill="white">
<path d="M106 205H120V240H106V205Z"/>
</mask>
<path d="M106 205H120V240H106V205Z" fill="#C7C7C7"/>
<path d="M107 240V205H105V240H107Z" fill="black" mask="url(#path-16-inside-1_5_19)"/>
<line x1="119.983" y1="57.5001" x2="264.983" y2="56.5001" stroke="white" stroke-width="5"/>
<line x1="99.9828" y1="87.5001" x2="244.983" y2="86.5001" stroke="white" stroke-width="5"/>
<defs>
<filter id="filter0_d_5_19" x="96" y="0" width="268" height="318" filterUnits="userSpaceOnUse" color-interpolation-filters="sRGB">
<feFlood flood-opacity="0" result="BackgroundImageFix"/>
<feColorMatrix in="SourceAlpha" type="matrix" values="0 0 0 0 0 0 0 0 0 0 0 0 0 0 0 0 0 0 127 0" result="hardAlpha"/>
<feMorphology radius="5" operator="dilate" in="SourceAlpha" result="effect1_dropShadow_5_19"/>
<feOffset dy="4"/>
<feGaussianBlur stdDeviation="2"/>
<feComposite in2="hardAlpha" operator="out"/>
<feColorMatrix type="matrix" values="0 0 0 0 0 0 0 0 0 0 0 0 0 0 0 0 0 0 0.25 0"/>
<feBlend mode="normal" in2="BackgroundImageFix" result="effect1_dropShadow_5_19"/>
<feBlend mode="normal" in="SourceGraphic" in2="effect1_dropShadow_5_19" result="shape"/>
</filter>
<filter id="filter1_di_5_19" x="0.756073" y="0" width="358.722" height="217.632" filterUnits="userSpaceOnUse" color-interpolation-filters="sRGB">
<feFlood flood-opacity="0" result="BackgroundImageFix"/>
<feColorMatrix in="SourceAlpha" type="matrix" values="0 0 0 0 0 0 0 0 0 0 0 0 0 0 0 0 0 0 127 0" result="hardAlpha"/>
<feMorphology radius="5" operator="dilate" in="SourceAlpha" result="effect1_dropShadow_5_19"/>
<feOffset dy="4"/>
<feGaussianBlur stdDeviation="2"/>
<feComposite in2="hardAlpha" operator="out"/>
<feColorMatrix type="matrix" values="0 0 0 0 0 0 0 0 0 0 0 0 0 0 0 0 0 0 0.25 0"/>
<feBlend mode="normal" in2="BackgroundImageFix" result="effect1_dropShadow_5_19"/>
<feBlend mode="normal" in="SourceGraphic" in2="effect1_dropShadow_5_19" result="shape"/>
<feColorMatrix in="SourceAlpha" type="matrix" values="0 0 0 0 0 0 0 0 0 0 0 0 0 0 0 0 0 0 127 0" result="hardAlpha"/>
<feOffset dy="4"/>
<feGaussianBlur stdDeviation="5"/>
<feComposite in2="hardAlpha" operator="arithmetic" k2="-1" k3="1"/>
<feColorMatrix type="matrix" values="0 0 0 0 0 0 0 0 0 0.416667 0 0 0 0 0.316667 0 0 0 1 0"/>
<feBlend mode="normal" in2="shape" result="effect2_innerShadow_5_19"/>
</filter>
</defs>
</svg>
